<?xml version="1.0" encoding="utf-8"?>
<!-- Generator: Adobe Illustrator 25.1.0, SVG Export Plug-In . SVG Version: 6.00 Build 0)  -->
<svg version="1.1" id="Layer_1" xmlns="http://www.w3.org/2000/svg" xmlns:xlink="http://www.w3.org/1999/xlink" x="0px" y="0px"
	 viewBox="0 0 792 612" style="enable-background:new 0 0 792 612;" xml:space="preserve">
<style type="text/css">
	.st0{fill:#FFFFFF;}
	.st1{fill:#C5A099;}
	.st2{fill:#FFDEB4;}
	.st3{fill:#ECADCE;}
	.st4{fill:#EA9BC3;}
	.st5{fill:#EBA8CB;}
	.st6{fill:#FFF9DC;}
	.st7{font-family:'Monaco';}
	.st8{font-size:60.4375px;glyph-orientation-vertical:0;writing-mode:tb;}
	.st9{fill:#F8D1A7;}
	.st10{fill:#FDF7B6;}
	.st11{fill:#F7F5C1;}
	.st12{font-family:'Didot';}
	.st13{font-size:18px;}
	.st14{opacity:0.91;fill:#FFFAEA;}
	.st15{font-family:'Chalkduster';}
	.st16{fill:#FFFAEA;}
</style>
<rect class="st0" width="792" height="612"/>
<rect class="st1" width="792" height="612"/>
<rect class="st2" width="169.3" height="604.47"/>
<polygon class="st2" points="602.3,608.24 361.65,608.24 189.7,325.95 189.7,-3.76 "/>
<polygon class="st2" points="636.12,608.24 630.29,3.76 386.98,238.15 "/>
<path class="st3" d="M56.44,19.43c1.78,0,3.29,0.05,4.52,0.15c1.23,0.1,2.4,0.48,3.5,1.16c1.78,0.77,2.91,1.48,3.39,2.1
	c0.48,0.63,1.27,1.28,2.36,1.96c0.96,1.94,2.4,3.12,4.32,3.55c1.92,0.43,3.7,1.14,5.35,2.1c1.65,0.97,3.25,2.15,4.83,3.55
	c1.57,1.4,3.19,2.88,4.83,4.42c1.65,1.55,3.22,3.04,4.73,4.5c1.51,1.45,3.01,2.66,4.52,3.62c2.06,1.65,3.8,3.36,5.24,5.15
	c1.44,1.79,3.73,3.26,6.89,4.42c0.82,0.48,2.4,1.6,4.73,3.33c2.33,1.74,4.9,3.6,7.71,5.58c2.81,1.98,5.52,3.75,8.12,5.29
	c2.6,1.55,4.66,2.32,6.17,2.32c0.96,0,1.61-0.15,1.95-0.44c0.34-0.29,0.51-0.65,0.51-1.09s-0.1-0.87-0.31-1.31
	c-0.21-0.44-0.31-0.8-0.31-1.09V57.85c0-0.87,0.38-1.89,1.13-3.04c0.75-1.16,1.13-2.56,1.13-4.21V38.42
	c-0.55-0.29-1.3-0.77-2.26-1.45c-0.96-0.68-1.92-1.38-2.88-2.1c-0.96-0.73-1.89-1.38-2.78-1.96c-0.89-0.58-1.54-0.87-1.95-0.87
	h-3.91c-0.82,0-1.78-0.17-2.88-0.51c-1.1-0.34-2.13-0.75-3.08-1.23c-0.96-0.48-1.75-0.94-2.36-1.38c-0.62-0.44-0.93-0.75-0.93-0.94
	v-4.5c0-0.96,0.31-1.74,0.93-2.32c0.62-0.58,1.4-0.99,2.36-1.23c0.96-0.24,1.99-0.39,3.08-0.44c1.1-0.05,2.06-0.07,2.88-0.07h3.91
	c0.96,0,2.23,0.07,3.8,0.22c1.57,0.15,3.22,0.29,4.94,0.44c1.71,0.15,3.36,0.29,4.94,0.44c1.57,0.15,2.98,0.22,4.22,0.22h28.58
	c2.74,0,5.31,0.44,7.71,1.31c2.4,0.87,3.6,2.32,3.6,4.35c0,0.77-0.07,1.43-0.21,1.96c-0.14,0.53-0.62,1.23-1.44,2.1
	c-3.15,1.35-6.2,1.96-9.15,1.81c-2.95-0.15-5.79-0.22-8.53-0.22l-5.76,1.16h-3.5c-1.1,0-2.02,0.56-2.78,1.67
	c-0.75,1.11-1.13,2.3-1.13,3.55v5.66v1.16v8.56v6.81c0,0.58,0.27,1.45,0.82,2.61c0.55,1.16,0.82,2.03,0.82,2.61v8.12l-3.5,14.07
	c0,0.58,0.17,1.35,0.51,2.32c0.34,0.97,0.75,1.96,1.23,2.97c0.48,1.01,0.89,1.98,1.23,2.9c0.34,0.92,0.51,1.67,0.51,2.25
	c0,0.39-0.04,1.06-0.1,2.03c-0.07,0.97-0.21,1.93-0.41,2.9c-0.21,0.97-0.55,1.81-1.03,2.54c-0.48,0.73-1.13,1.09-1.95,1.09
	c-0.55,0-1.47,0-2.78,0c-1.3,0-2.64-0.05-4.01-0.15c-1.37-0.1-2.57-0.24-3.6-0.44c-1.03-0.19-1.54-0.43-1.54-0.72
	c-1.92-1.35-3.53-3-4.83-4.93c-1.3-1.93-2.91-3.48-4.83-4.64c-1.51-1.45-2.95-2.66-4.32-3.62c-1.37-0.96-2.71-1.88-4.01-2.75
	c-1.3-0.87-2.54-1.79-3.7-2.75c-1.17-0.97-2.16-2.12-2.98-3.48c-1.51-2.42-3.84-4.74-6.99-6.96c-3.16-2.22-6.48-4.45-9.97-6.67
	c-3.5-2.22-6.92-4.47-10.28-6.74c-3.36-2.27-6.07-4.62-8.12-7.03c0-0.29-0.21-0.75-0.62-1.38c-0.41-0.63-0.96-1.23-1.65-1.81
	c-0.69-0.58-1.47-1.11-2.36-1.59c-0.89-0.48-1.82-0.73-2.78-0.73c-2.61,0-3.91,1.45-3.91,4.35v10.88v5.65l1.64,8.12
	c0,1.93-0.1,3.26-0.31,3.99s-0.31,1.81-0.31,3.26c0,1.84,0.79,3.21,2.36,4.13c1.57,0.92,3.53,1.62,5.86,2.1
	c2.33,0.48,4.83,0.85,7.51,1.09c2.67,0.24,5.17,0.56,7.51,0.94c2.33,0.39,4.28,0.99,5.86,1.81c1.57,0.82,2.36,2.01,2.36,3.55
	c0,0.77-0.34,1.23-1.03,1.38c-0.69,0.15-1.51,0.22-2.47,0.22H77.62l-13.16,1.3c-1.1-0.68-2.47-1.06-4.11-1.16
	c-1.65-0.1-2.95-0.15-3.91-0.15h-3.91c-2.88,0-5.01-0.27-6.37-0.8c-1.37-0.53-3.08-0.8-5.14-0.8h-7.4l-1.65,1.6h-4.11
	c0-0.39-0.04-1.04-0.1-1.96c-0.07-0.92-0.1-1.81-0.1-2.68c-0.14-1.06-0.21-2.17-0.21-3.33c0-0.77,0.62-1.45,1.85-2.03
	c1.23-0.58,2.33-0.87,3.29-0.87c2.19,0,3.67,0,4.42,0c0.75,0,1.23-0.02,1.44-0.07c0.21-0.05,0.34-0.07,0.41-0.07
	c0.07,0,0.48-0.02,1.23-0.07c0.75-0.05,2.06-0.07,3.91-0.07c1.85,0,4.69,0,8.53,0c0.96,0,1.78-0.22,2.47-0.65
	c0.68-0.43,1.23-0.94,1.65-1.52c0.41-0.58,0.68-1.18,0.82-1.81c0.14-0.63,0.21-1.09,0.21-1.38c-0.28-0.39-0.48-0.77-0.62-1.16
	c-0.41-0.58-0.62-1.26-0.62-2.03c0-1.45-0.1-2.63-0.31-3.55c-0.21-0.92-0.48-1.72-0.82-2.39c-0.34-0.68-0.62-1.28-0.82-1.81
	c-0.21-0.53-0.31-1.18-0.31-1.96c0-0.68,0.1-1.5,0.31-2.47c0.21-0.96,0.44-1.83,0.72-2.61c0.41-0.96,0.82-1.93,1.23-2.9v-9.71
	c0-0.58-0.1-1.26-0.31-2.03c-0.21-0.77-0.86-1.54-1.95-2.32c0-1.16,0.34-1.89,1.03-2.18c0.41-0.19,0.82-0.29,1.23-0.29
	c-0.14-0.39-0.41-0.92-0.82-1.6c-0.41-0.68-0.86-1.35-1.34-2.03c-0.48-0.68-0.89-1.31-1.23-1.89c-0.34-0.58-0.51-1.02-0.51-1.31
	c0-2.03-1.1-3.57-3.29-4.64c-2.19-1.06-4.63-2.08-7.3-3.04c-2.67-0.97-5.11-2.08-7.3-3.34c-2.19-1.25-3.29-3.09-3.29-5.51
	c0.55-0.97,1.1-1.83,1.64-2.61c0.55-0.68,1.13-1.31,1.75-1.89c0.62-0.58,1.4-0.87,2.36-0.87H56.44z"/>
<path class="st3" d="M154.64,233.94c1.11,0,2.03,0.48,2.75,1.42c0.72,0.95,1.08,1.96,1.08,3.02l-0.89,3.19
	c0.39,0.46,0.65,1.1,0.79,1.94c0.06,0.38,0.1,0.8,0.1,1.25c0,1.52-0.15,2.93-0.44,4.22c-0.29,1.29-0.44,2.74-0.44,4.33v0.91
	c0,0.38-0.03,0.82-0.1,1.31c-0.07,0.5-0.16,0.97-0.3,1.42c-0.13,0.53-0.26,1.1-0.39,1.71v1.25c0,0.84-0.12,1.52-0.34,2.05
	c-0.23,0.53-0.48,1.22-0.74,2.05c-0.13,0.61-0.34,1.24-0.64,1.88c-0.3,0.65-0.44,1.39-0.44,2.22c0,0.3,0.06,0.7,0.2,1.2
	c0.13,0.5,0.33,0.99,0.59,1.48c0.26,0.5,0.57,0.91,0.93,1.25c0.36,0.34,0.77,0.51,1.23,0.51c0.52,0,1-0.19,1.43-0.57
	c0.43-0.38,0.77-0.8,1.03-1.25c0.33-0.38,0.67-0.7,1.03-0.97c0.36-0.27,0.77-0.4,1.23-0.4h1.87c0.39,0,0.62,0.23,0.69,0.68
	c0.06,0.46,0.1,0.99,0.1,1.6c0,0.23-0.3,0.68-0.89,1.37c-0.59,0.68-1.25,1.42-1.97,2.22c-0.72,0.8-1.44,1.56-2.16,2.28
	c-0.72,0.72-1.21,1.2-1.47,1.42c-0.2,0.53-0.62,1.44-1.28,2.74c-0.66,1.29-1.38,2.6-2.16,3.93c-0.79,1.33-1.62,2.51-2.51,3.53
	c-0.89,1.03-1.66,1.54-2.31,1.54c-0.46,0-0.97-0.17-1.52-0.51c-0.56-0.34-1.07-0.8-1.52-1.37c-0.46-0.57-0.84-1.16-1.13-1.77
	c-0.3-0.61-0.44-1.21-0.44-1.82v-1.82c0-0.61-0.03-1.14-0.1-1.6c-0.07-0.46-0.3-0.68-0.69-0.68v-2.17l0.79-3.19v-5.36
	c0-1.14,0.13-2.05,0.39-2.74c0.26-0.68,0.39-1.56,0.39-2.62v-1.03c0-0.53,0.15-1.29,0.44-2.28c0.3-0.99,0.61-2.05,0.93-3.19
	c0.33-1.14,0.64-2.26,0.93-3.36c0.3-1.1,0.44-2.07,0.44-2.91c0-0.61-0.21-1.27-0.64-1.99c-0.43-0.72-1.13-1.08-2.11-1.08
	c-0.39,0-0.74,0.15-1.03,0.46c-0.3,0.3-1.13,0.46-2.51,0.46c-0.13-0.07-0.26-0.27-0.39-0.57c-0.26-0.46-0.39-1.03-0.39-1.71v-1.82
	c0-0.68,0.57-1.69,1.72-3.02c1.15-1.33,2.46-2.66,3.93-3.99c1.47-1.33,2.9-2.51,4.28-3.53
	C153.37,234.46,154.25,233.94,154.64,233.94z M154.94,207.05c0.26,0,0.61-0.06,1.03-0.17c0.43-0.11,0.87-0.23,1.33-0.34
	c0.46-0.11,0.9-0.23,1.33-0.34c0.43-0.11,0.74-0.17,0.93-0.17c0.92,0.38,1.51,1.03,1.77,1.94c0.26,0.91,0.65,1.86,1.18,2.85
	c0,0.61,0.05,1.22,0.15,1.82c0.1,0.61,0.15,1.18,0.15,1.71c0,0.46-0.13,1.01-0.39,1.65c-0.26,0.65-0.39,1.46-0.39,2.45
	c-0.13,0.53-0.31,1.18-0.54,1.94c-0.23,0.76-0.53,1.46-0.89,2.11c-0.36,0.65-0.79,1.18-1.28,1.6c-0.49,0.42-1.07,0.55-1.72,0.4
	c-0.92,0-1.92-0.36-3-1.08c-1.08-0.72-1.89-1.65-2.41-2.79c-0.46-0.46-0.62-1.14-0.49-2.05c0.13-0.91,0.2-1.71,0.2-2.39
	c0-2.05,0.3-3.72,0.89-5.01C153.37,209.86,154.09,208.49,154.94,207.05z"/>
<path class="st4" d="M264.01,153.81c1.25,0.19,2.63,0.48,4.13,0.87c1.5,0.39,2.83,0.94,3.99,1.67c1.16,0.73,2.08,1.69,2.75,2.9
	c0.67,1.21,0.92,2.78,0.73,4.71c0,1.06-0.22,2.08-0.65,3.04c-0.44,0.97-0.97,1.86-1.59,2.68c-0.63,0.82-1.33,1.48-2.1,1.96
	c-0.77,0.48-1.45,0.73-2.03,0.73c-0.77-0.1-1.43-0.17-1.96-0.22c-0.53-0.05-0.94-0.07-1.23-0.07h-0.87h-1.16
	c-1.65,0-3.48,0.05-5.51,0.15c-2.03,0.1-3.43,0.44-4.21,1.02c-0.77,0-1.23,0.24-1.38,0.72c-0.15,0.48-0.22,1.06-0.22,1.74
	l-2.03,3.19c-0.19,1.16-0.39,2.27-0.58,3.33c-0.19,0.87-0.39,1.74-0.58,2.61c-0.19,0.87-0.34,1.45-0.44,1.74v2.32l-1.16,4.06
	c-0.19,0.39-0.44,0.77-0.73,1.16c-0.19,0.39-0.39,0.75-0.58,1.09c-0.19,0.34-0.34,0.65-0.44,0.94c0,0.87,0.15,2.06,0.44,3.55
	c0.29,1.5,0.67,2.95,1.16,4.35c0.48,1.4,1.04,2.63,1.67,3.7c0.63,1.06,1.33,1.65,2.1,1.74c1.45,0,2.95-0.58,4.5-1.74
	c1.54-1.16,3.07-2.44,4.57-3.84c1.5-1.4,2.95-2.66,4.35-3.77c1.4-1.11,2.68-1.62,3.84-1.52c1.45,0.19,2.27,0.56,2.47,1.09
	c0.19,0.53,0.19,1.09,0,1.67c-0.1,1.35-0.65,2.9-1.67,4.64c-1.02,1.74-2.23,3.46-3.62,5.15c-1.4,1.69-2.85,3.24-4.35,4.64
	c-1.5,1.4-2.73,2.39-3.7,2.97c-3.19,2.03-6.04,3.72-8.55,5.08c-2.52,1.35-5.32,1.93-8.41,1.74c-1.35-0.1-2.46-0.8-3.33-2.1
	c-0.87-1.3-1.55-2.8-2.03-4.5c-0.48-1.69-0.85-3.36-1.09-5c-0.24-1.64-0.36-2.85-0.36-3.62l0.44-1.3c0-0.39-0.05-1.04-0.15-1.96
	c-0.1-0.92-0.17-1.89-0.22-2.9c-0.05-1.02-0.1-2.01-0.14-2.97c-0.05-0.97-0.03-1.69,0.07-2.18c0-3,0.34-5.34,1.02-7.03
	c0.67-1.69,1.01-3.5,1.01-5.44l1.6-3.62v-3.33c0.1-0.29,0.34-1.04,0.73-2.25c0.39-1.21,0.85-2.56,1.38-4.06
	c0.53-1.5,1.04-3.02,1.52-4.57c0.48-1.55,0.87-2.75,1.16-3.62c0-0.58,0.34-1.31,1.01-2.18c0.68-0.87,1.47-1.71,2.39-2.54
	c0.92-0.82,1.89-1.52,2.9-2.1c1.02-0.58,1.91-0.87,2.68-0.87c0.58-0.19,0.92-0.34,1.02-0.44c0.1-0.1,0.15-0.19,0.15-0.29
	c0-0.1,0.05-0.22,0.15-0.36c0.1-0.15,0.44-0.31,1.02-0.51c1.45-0.19,2.56-0.41,3.33-0.65c0.77-0.24,1.5-0.48,2.17-0.73
	c0.68-0.24,1.33-0.44,1.96-0.58C261.96,153.74,262.85,153.72,264.01,153.81z"/>
<path class="st3" d="M343.96,369.82c3.37,0,7.52,0.05,12.46,0.15c4.93,0.1,9.09,0.44,12.46,1.02c3.61,0,5.96,0.58,7.04,1.74
	c1.08,1.16,2.47,2.47,4.15,3.92c0.96,0.39,2.11,0.92,3.43,1.6c1.32,0.68,2.53,1.38,3.61,2.1c1.08,0.72,1.99,1.47,2.71,2.25
	c0.72,0.77,1.08,1.45,1.08,2.03l-2.89,12.9c0,2.71-1.44,5.71-4.33,8.99c-2.89,3.29-7.11,6.23-12.64,8.84
	c-1.93,0.77-3.31,1.62-4.15,2.54c-0.85,0.92-1.69,1.86-2.53,2.83c-0.85,0.97-1.8,1.96-2.89,2.97c-1.08,1.01-2.59,2.01-4.51,2.97
	c-1.44,0.68-3.07,1.5-4.88,2.47c-1.81,0.97-3.74,1.96-5.78,2.97c-2.05,1.02-4.22,1.94-6.5,2.76c-2.29,0.82-4.64,1.43-7.04,1.81
	c-3.61,0.77-6.62,1.45-9.03,2.03c-2.41,0.58-4.58,1.06-6.5,1.45c-1.93,0.38-3.92,0.65-5.96,0.8c-2.05,0.15-4.28,0.22-6.68,0.22
	c-3.61,0-6.99-0.34-10.11-1.01c-3.13-0.68-5.84-1.57-8.13-2.68c-2.29-1.11-4.15-2.37-5.6-3.77c-1.44-1.4-2.17-2.83-2.17-4.28v-9.72
	c0-0.58-0.49-1.11-1.44-1.59c-0.97-0.48-1.44-1.84-1.44-4.06c-0.24-2.8,1.44-6.19,5.06-10.15c3.61-3.96,7.88-7.85,12.82-11.67
	c4.93-3.82,9.87-7.2,14.81-10.15c4.93-2.95,8.72-4.76,11.38-5.44c2.65-0.68,4.88-1.42,6.68-2.25c1.8-0.82,3.55-1.57,5.24-2.25
	c1.68-0.67,3.43-1.23,5.24-1.67C338.72,370.04,341.07,369.82,343.96,369.82z M345.77,386.35c-3.85,0-7.77,0.65-11.74,1.96
	c-3.97,1.31-7.65,2.81-11.02,4.5c-3.38,1.69-6.38,3.38-9.03,5.08c-2.65,1.69-4.46,2.92-5.42,3.7l-3.61,5.51
	c-0.97,1.35-1.75,2.66-2.35,3.92c-0.6,1.26-0.9,2.03-0.9,2.32v2.75c0.96,0.29,1.81,0.87,2.53,1.74s1.62,1.74,2.71,2.61
	c1.08,0.87,2.35,1.65,3.79,2.32c1.44,0.68,3.49,1.02,6.14,1.02c4.81-0.87,9.27-1.74,13.36-2.61c3.37-0.77,6.68-1.6,9.93-2.46
	c3.25-0.87,5.47-1.74,6.68-2.61c1.44-1.35,3.07-2.95,4.88-4.78c1.81-1.84,3.55-3.58,5.24-5.22c-0.49-0.77,0.06-1.54,1.62-2.32
	c1.56-0.77,2.35-1.5,2.35-2.18v-4.06c0-0.48-0.3-1.33-0.9-2.54c-0.6-1.21-1.57-2.47-2.89-3.77c-1.33-1.31-2.95-2.44-4.88-3.41
	C350.34,386.84,348.17,386.35,345.77,386.35z"/>
<path class="st4" d="M490.18,107.01c1.4,0,2.28,2.09,2.64,6.28c0.36,4.19,0.54,8.96,0.54,14.31v6.63c0,3.26-0.22,6.75-0.65,10.47
	c-0.43,3.72-0.97,7.15-1.59,10.29c-0.63,3.14-1.29,5.82-1.99,8.03c-0.7,2.21-1.29,3.31-1.77,3.31c-0.63,0-1.16-0.46-1.59-1.4
	c-0.43-0.93-0.84-1.39-1.23-1.39c-1.01,0-2.06,1.51-3.15,4.54c-1.09,3.03-1.77,7.91-2.06,14.66c-0.39,3.49-0.57,6.58-0.54,9.25
	c0.02,2.68-0.06,5.41-0.25,8.2c-0.43,4.89-0.88,11.23-1.34,19.02c-0.46,7.8-0.69,15.06-0.69,21.81c0,0.7-0.04,1.86-0.11,3.49
	c-0.07,1.63-0.16,3.37-0.25,5.23c-0.1,2.09-0.19,4.31-0.29,6.63v10.82l-1.01,28.26c0.1,3.26,0.08,7.04-0.04,11.34
	c-0.12,4.31-0.3,9.25-0.54,14.83c-0.24,5.58-0.48,11.64-0.72,18.15c-0.24,6.52-0.41,13.38-0.51,20.59c0,1.4,0.06,3.66,0.18,6.8
	c0.12,3.14,0.35,4.71,0.69,4.71c0.43,0,0.9-0.7,1.41-2.09c0.51-1.4,1-3.14,1.48-5.23c0.48-2.09,0.98-4.3,1.48-6.63
	c0.51-2.32,0.98-4.42,1.41-6.28c0.92-4.42,1.86-8.43,2.82-12.04c0.96-3.6,1.91-5.41,2.82-5.41l0.43,2.79c0,2.56-0.14,5.53-0.43,8.9
	c-0.29,3.37-0.65,6.8-1.09,10.29c-0.43,3.49-0.92,6.75-1.45,9.77c-0.53,3.03-1.04,5.35-1.52,6.98c-0.97,3.26-1.75,7.21-2.35,11.86
	c-0.6,4.66-1.41,9.42-2.42,14.31c-0.34,3.49-0.86,6.34-1.56,8.55c-0.7,2.21-1.39,4.25-2.06,6.11c-0.72,1.4-1.6,3.2-2.64,5.41
	c-1.04,2.21-1.92,3.31-2.64,3.31c-0.53,0-0.9-0.41-1.12-1.22c-0.22-0.82-0.35-2.04-0.4-3.67c-0.05-1.63-0.04-3.72,0.04-6.28
	c0.07-2.56,0.11-5.7,0.11-9.42v-22.33c0-3.25,0.13-6.51,0.4-9.77c0.26-3.25,0.4-6.4,0.4-9.42v-6.98c0,1.86,0.05,0.99,0.14-2.62
	c0.1-3.6,0.22-8.95,0.36-16.05c0.14-7.09,0.26-15.53,0.36-25.3c0.1-9.77,0.14-20,0.14-30.71c0-1.39,0.13-3.43,0.4-6.11
	c0.26-2.67,0.4-4.83,0.4-6.46v-12.56c0.29-6.74,0.51-13.37,0.65-19.89c0.14-6.51,0.29-12.91,0.43-19.19
	c0.14-6.28,0.34-12.62,0.58-19.02c0.24-6.39,0.63-12.85,1.16-19.37c0.39-6.28,1.01-12.33,1.88-18.15
	c0.87-5.81,1.64-12.09,2.32-18.84c0.34-3.02,0.71-5.81,1.12-8.37c0.41-2.56,0.93-4.65,1.56-6.28c0.68-5.35,1.6-9.6,2.79-12.74
	c1.18-3.14,2.33-4.71,3.44-4.71H490.18z"/>
<path class="st3" d="M633.33,505.01c2.03,0,3.75,0.27,5.15,0.8c1.4,0.53,2.54,1.27,3.41,2.19c0.87,0.93,1.5,2,1.88,3.21
	c0.38,1.21,0.53,2.5,0.43,3.85c0,1.93-0.97,3.48-2.9,4.65c-1.93,1.18-3.92,2.19-5.95,3.05c-1.84,0.93-3.79,1.75-5.87,2.46
	c-2.08,0.71-4.01,1.5-5.8,2.35c-1.79,0.86-3.29,1.86-4.49,3c-1.21,1.14-1.86,2.6-1.96,4.39v4.49c-0.19,1.21,0.15,2.41,1.01,3.58
	c0.87,1.18,1.98,1.77,3.34,1.77c0.09,0.07,0.48-0.03,1.16-0.32c0.68-0.28,1.43-0.62,2.25-1.02c0.82-0.39,1.64-0.8,2.46-1.23
	c0.82-0.43,1.42-0.75,1.81-0.96c1.45-0.5,2.58-0.91,3.41-1.23c0.82-0.32,1.43-0.41,1.81-0.27c0.68,0,1.26,0.07,1.74,0.21
	c0.48,0.14,0.72,0.68,0.72,1.6c-0.19,1.57-1.11,3.09-2.75,4.55c-1.64,1.46-3.43,2.82-5.36,4.07c-1.94,1.25-3.82,2.34-5.66,3.26
	c-1.84,0.93-3.04,1.6-3.62,2.03c-1.65,1.07-3.17,1.64-4.57,1.71c-1.4,0.07-2.83,0.11-4.28,0.11c-0.87-0.07-1.77-0.36-2.68-0.86
	c-0.92-0.5-1.74-1.09-2.47-1.77c-0.72-0.68-1.28-1.37-1.67-2.09c-0.39-0.71-0.53-1.32-0.43-1.82v-1.82c0-0.5-0.19-1.03-0.58-1.6
	c-0.19-0.28-0.39-0.53-0.58-0.75l0.44-2.14v-1.71c0-0.28,0.1-1.05,0.29-2.3c0.19-1.25,0.44-2.6,0.72-4.07
	c0.29-1.46,0.56-2.85,0.8-4.17c0.24-1.32,0.41-2.19,0.51-2.62c0.39-0.21,0.58-0.43,0.58-0.64s-0.05-0.43-0.15-0.64
	c-0.1-0.21-0.15-0.48-0.15-0.8s0.19-0.7,0.58-1.12c0-0.86,0.24-1.75,0.73-2.67c0.29-0.5,0.58-1,0.87-1.5l2.03-3.53
	c0.19-1.57,1.21-3.19,3.05-4.87c1.83-1.67,3.99-3.19,6.45-4.55c2.46-1.35,5-2.44,7.61-3.26
	C629.27,505.21,631.5,504.87,633.33,505.01z M626.81,513.03c-0.49,0-0.97,0.27-1.45,0.8c-0.48,0.53-0.97,1.12-1.45,1.77
	c-0.48,0.79-0.97,1.6-1.45,2.46c-0.1,0.36-0.24,0.77-0.43,1.23c-0.2,0.46-0.34,0.89-0.43,1.28c-0.1,0.39-0.05,0.71,0.14,0.96
	c0.19,0.25,0.58,0.37,1.16,0.37c0.48,0.07,1.21,0,2.17-0.21c0.96-0.21,1.96-0.53,2.97-0.96s1.93-0.94,2.75-1.55
	c0.82-0.6,1.28-1.27,1.38-1.98v-1.82c0-0.36-0.15-0.68-0.44-0.96c-0.29-0.28-0.63-0.5-1.01-0.64c-0.39-0.21-0.87-0.39-1.45-0.53
	L626.81,513.03z"/>
<path class="st3" d="M275.55,168.4c1.25,0.19,2.63,0.48,4.13,0.87c1.5,0.39,2.83,0.94,3.99,1.67c1.16,0.73,2.08,1.69,2.75,2.9
	c0.67,1.21,0.92,2.78,0.73,4.71c0,1.06-0.22,2.08-0.65,3.04c-0.44,0.97-0.97,1.86-1.59,2.68c-0.63,0.82-1.33,1.48-2.1,1.96
	c-0.77,0.48-1.45,0.73-2.03,0.73c-0.77-0.1-1.43-0.17-1.96-0.22c-0.53-0.05-0.94-0.07-1.23-0.07h-0.87h-1.16
	c-1.65,0-3.48,0.05-5.51,0.15c-2.03,0.1-3.43,0.44-4.21,1.02c-0.77,0-1.23,0.24-1.38,0.72c-0.15,0.48-0.22,1.06-0.22,1.74
	l-2.03,3.19c-0.19,1.16-0.39,2.27-0.58,3.33c-0.19,0.87-0.39,1.74-0.58,2.61c-0.19,0.87-0.34,1.45-0.44,1.74v2.32l-1.16,4.06
	c-0.19,0.39-0.44,0.77-0.73,1.16c-0.19,0.39-0.39,0.75-0.58,1.09c-0.19,0.34-0.34,0.65-0.44,0.94c0,0.87,0.15,2.06,0.44,3.55
	c0.29,1.5,0.67,2.95,1.16,4.35c0.48,1.4,1.04,2.63,1.67,3.7c0.63,1.06,1.33,1.65,2.1,1.74c1.45,0,2.95-0.58,4.5-1.74
	c1.54-1.16,3.07-2.44,4.57-3.84c1.5-1.4,2.95-2.66,4.35-3.77c1.4-1.11,2.68-1.62,3.84-1.52c1.45,0.19,2.27,0.56,2.47,1.09
	c0.19,0.53,0.19,1.09,0,1.67c-0.1,1.35-0.65,2.9-1.67,4.64c-1.02,1.74-2.23,3.46-3.62,5.15c-1.4,1.69-2.85,3.24-4.35,4.64
	c-1.5,1.4-2.73,2.39-3.7,2.97c-3.19,2.03-6.04,3.72-8.55,5.08c-2.52,1.35-5.32,1.93-8.41,1.74c-1.35-0.1-2.46-0.8-3.33-2.1
	c-0.87-1.3-1.55-2.8-2.03-4.5c-0.48-1.69-0.85-3.36-1.09-5c-0.24-1.64-0.36-2.85-0.36-3.62l0.44-1.3c0-0.39-0.05-1.04-0.15-1.96
	c-0.1-0.92-0.17-1.89-0.22-2.9c-0.05-1.02-0.1-2.01-0.14-2.97c-0.05-0.97-0.03-1.69,0.07-2.18c0-3,0.34-5.34,1.02-7.03
	c0.67-1.69,1.01-3.5,1.01-5.44l1.6-3.62v-3.33c0.1-0.29,0.34-1.04,0.73-2.25c0.39-1.21,0.85-2.56,1.38-4.06
	c0.53-1.5,1.04-3.02,1.52-4.57c0.48-1.55,0.87-2.75,1.16-3.62c0-0.58,0.34-1.31,1.01-2.18c0.68-0.87,1.47-1.71,2.39-2.54
	c0.92-0.82,1.89-1.52,2.9-2.1c1.02-0.58,1.91-0.87,2.68-0.87c0.58-0.19,0.92-0.34,1.02-0.44c0.1-0.1,0.15-0.19,0.15-0.29
	c0-0.1,0.05-0.22,0.15-0.36c0.1-0.15,0.44-0.31,1.02-0.51c1.45-0.19,2.56-0.41,3.33-0.65c0.77-0.24,1.5-0.48,2.17-0.73
	c0.68-0.24,1.33-0.44,1.96-0.58C273.49,168.33,274.39,168.31,275.55,168.4z"/>
<path class="st4" d="M652.04,484.46c2.03,0,3.75,0.36,5.15,1.09c1.4,0.73,2.54,1.72,3.41,2.97c0.87,1.26,1.5,2.71,1.88,4.35
	c0.38,1.64,0.53,3.38,0.43,5.22c0,2.61-0.97,4.71-2.9,6.31c-1.93,1.6-3.92,2.97-5.95,4.13c-1.84,1.26-3.79,2.37-5.87,3.33
	c-2.08,0.97-4.01,2.03-5.8,3.19c-1.79,1.16-3.29,2.51-4.49,4.06c-1.21,1.55-1.86,3.53-1.96,5.95v6.09
	c-0.19,1.65,0.15,3.26,1.01,4.86c0.87,1.6,1.98,2.39,3.34,2.39c0.09,0.1,0.48-0.05,1.16-0.44c0.68-0.39,1.43-0.84,2.25-1.38
	c0.82-0.53,1.64-1.09,2.46-1.67c0.82-0.58,1.42-1.02,1.81-1.31c1.45-0.67,2.58-1.23,3.41-1.67c0.82-0.43,1.43-0.55,1.81-0.36
	c0.68,0,1.26,0.1,1.74,0.29c0.48,0.19,0.72,0.92,0.72,2.17c-0.19,2.13-1.11,4.18-2.75,6.16c-1.64,1.98-3.43,3.82-5.36,5.51
	c-1.94,1.69-3.82,3.17-5.66,4.42c-1.84,1.26-3.04,2.17-3.62,2.75c-1.65,1.45-3.17,2.22-4.57,2.32c-1.4,0.1-2.83,0.15-4.28,0.15
	c-0.87-0.1-1.77-0.48-2.68-1.16c-0.92-0.68-1.74-1.47-2.47-2.39c-0.72-0.92-1.28-1.86-1.67-2.83c-0.39-0.96-0.53-1.79-0.43-2.46
	v-2.46c0-0.68-0.19-1.4-0.58-2.18c-0.19-0.39-0.39-0.73-0.58-1.02l0.44-2.9v-2.32c0-0.39,0.1-1.43,0.29-3.12
	c0.19-1.69,0.44-3.53,0.72-5.51c0.29-1.98,0.56-3.87,0.8-5.66c0.24-1.79,0.41-2.97,0.51-3.55c0.39-0.29,0.58-0.58,0.58-0.87
	s-0.05-0.58-0.15-0.87c-0.1-0.29-0.15-0.65-0.15-1.09s0.19-0.94,0.58-1.52c0-1.16,0.24-2.37,0.73-3.62
	c0.29-0.68,0.58-1.35,0.87-2.03l2.03-4.79c0.19-2.12,1.21-4.33,3.05-6.6c1.83-2.27,3.99-4.33,6.45-6.16c2.46-1.83,5-3.31,7.61-4.42
	C647.98,484.73,650.2,484.27,652.04,484.46z M645.51,495.34c-0.49,0-0.97,0.36-1.45,1.09c-0.48,0.73-0.97,1.52-1.45,2.39
	c-0.48,1.06-0.97,2.17-1.45,3.33c-0.1,0.48-0.24,1.04-0.43,1.67c-0.2,0.63-0.34,1.21-0.43,1.74c-0.1,0.53-0.05,0.97,0.14,1.3
	c0.19,0.34,0.58,0.51,1.16,0.51c0.48,0.1,1.21,0,2.17-0.29c0.96-0.29,1.96-0.73,2.97-1.31s1.93-1.28,2.75-2.1
	c0.82-0.82,1.28-1.71,1.38-2.68v-2.46c0-0.48-0.15-0.92-0.44-1.31c-0.29-0.38-0.63-0.67-1.01-0.87c-0.39-0.29-0.87-0.53-1.45-0.73
	L645.51,495.34z"/>
<g>
	<g>
		<path class="st3" d="M82.6,87.57c0.07,21.53-1.41,43.07-4.52,64.38c-0.88,5.99-1.88,11.96-3,17.91c1.61,0,3.21,0,4.82,0
			c-2.21-15.04,0.82-30.21,3.78-44.92c1.53-7.62,3.05-15.24,4.07-22.96c1.03-7.8,1.6-15.64,1.92-23.5
			c0.36-8.85,0.41-17.71,0.46-26.56c-1.55,0.42-3.11,0.84-4.66,1.26c10.49,13.72,20.04,28.15,28.57,43.16
			c8.49,14.95,15.99,30.48,22.35,46.46c3.59,9.01,6.83,18.16,9.71,27.42c0.69,2.22,4.3,2.54,4.82,0c6.07-29.28,8.55-59.3,7.25-89.18
			c-0.36-8.38-1.03-16.74-1.97-25.08c-0.15-1.34-1.04-2.5-2.5-2.5c-1.23,0-2.65,1.15-2.5,2.5c3.33,29.26,3.07,58.94-0.85,88.14
			c-1.12,8.31-2.55,16.58-4.25,24.79c1.61,0,3.21,0,4.82,0c-5.19-16.62-11.51-32.88-18.9-48.65c-7.39-15.77-15.86-31.03-25.34-45.64
			c-5.32-8.2-10.96-16.19-16.9-23.95c-0.69-0.9-1.66-1.47-2.82-1.15c-1.06,0.29-1.83,1.31-1.84,2.41
			c-0.09,15.89-0.18,31.83-2.07,47.63c-1.84,15.3-5.99,30.21-7.93,45.49c-1.1,8.71-1.32,17.45-0.04,26.15
			c0.36,2.43,4.38,2.34,4.82,0c4.03-21.44,6.52-43.17,7.37-64.97c0.24-6.21,0.35-12.43,0.33-18.64
			C87.59,84.35,82.59,84.34,82.6,87.57L82.6,87.57z"/>
	</g>
</g>
<g>
	<path class="st5" d="M145.46,248.4c-2.21,0-4.99-0.26-8.34-0.78l-8.34-1.26c-0.8,11.63-1.19,22.73-1.19,33.32
		c0,2.8,0.07,6.25,0.21,10.37c0.14,4.12,0.21,7.57,0.21,10.37c0,3.76-0.12,7.17-0.36,10.25l16.32-0.24c1.45,0,2.67,0.59,3.65,1.77
		c0.99,1.18,1.48,2.63,1.48,4.35c0,1.76-0.49,3.23-1.48,4.4c-0.98,1.18-2.2,1.77-3.65,1.77c-1.94,0-4.84,0.05-8.71,0.15
		c-3.87,0.1-6.77,0.15-8.71,0.15c-2.28,0-5.69,0.37-10.24,1.11c-4.54,0.74-7.97,1.11-10.29,1.11c-1.45,0-2.67-0.59-3.65-1.77
		c-0.99-1.18-1.48-2.63-1.48-4.34c0-1.72,0.49-3.18,1.48-4.38c0.98-1.2,2.2-1.8,3.65-1.8c2.25,0,5.96-0.42,11.14-1.26
		c0.34-3.24,0.52-6.93,0.52-11.09c0-2.76-0.11-6.12-0.34-10.1c-0.22-3.98-0.34-7.32-0.34-10.04c0-9.23,0.48-20.75,1.45-34.58
		l-6.74,0.24l-6.74,0.18c-1.49,0-2.73-0.58-3.73-1.74c-1-1.16-1.5-2.64-1.5-4.43c0-3.72,1.62-5.75,4.87-6.11
		c2.8-0.32,8.03-0.48,15.7-0.48c6.87,0,15.5,0.86,25.86,2.58c3.07,0.52,4.61,2.66,4.61,6.41c0,1.88-0.59,3.38-1.76,4.49
		C148,247.94,146.8,248.4,145.46,248.4z"/>
</g>
<g>
	<path class="st3" d="M540.59,314.26v36.08H479.7v-2.59h6.18V233.99h-6.18v-2.93h30.51v2.93h-7.5v113.76h12.1
		c2.54,0,4.91-0.06,7.1-0.17c2.19-0.11,4.12-0.29,5.79-0.52c3.86-0.57,6.75-4.77,8.68-12.6c0.7-3.68,1.27-7.22,1.71-10.62
		c0.44-3.39,0.66-6.59,0.66-9.58H540.59z"/>
</g>
<path class="st3" d="M181.42,11.38c0.46,0,0.86,0.14,1.18,0.4c0.32,0.27,0.63,1.34,0.91,3.21c0.46,2.14,0.76,4.08,0.89,5.81
	c0.12,1.74,0.33,3.55,0.62,5.41c0.25,5.35,0.63,8.62,1.13,9.82c0.5,1.2,0.97,3.14,1.4,5.81c0.43,2.68,0.85,5.95,1.26,9.82
	c0.41,3.88,0.83,7.96,1.26,12.23c0.43,4.28,0.84,8.42,1.23,12.43c0.39,4.01,0.79,7.35,1.18,10.02c0.54,4.55,0.99,9.29,1.37,14.23
	c0.38,4.95,0.97,9.02,1.8,12.23c0.21,1.34,0.63,4.41,1.23,9.22c0.61,4.81,1.28,9.96,2.01,15.44c0.73,5.48,1.44,10.36,2.12,14.64
	c0.68,4.28,1.22,6.42,1.61,6.42c0.25,0,0.42-0.4,0.51-1.2c0.09-0.8,0.13-1.8,0.13-3.01c0-1.2-0.03-2.41-0.08-3.61
	c-0.05-1.2-0.08-2.2-0.08-3.01v-30.07c0-2.41,0.1-5.21,0.3-8.42c0.2-3.21,0.3-7.08,0.3-11.63V63.91c-0.14-0.8-0.34-2.14-0.59-4.01
	c-0.25-1.87-0.5-3.81-0.75-5.81c-0.25-2.01-0.49-3.81-0.72-5.41c-0.23-1.6-0.4-2.41-0.51-2.41h-1.02c-0.21,0-0.47-0.46-0.75-1.4
	c-0.29-0.93-0.56-2.07-0.81-3.41c-0.25-1.33-0.46-2.61-0.62-3.81c-0.16-1.2-0.24-2.07-0.24-2.61V22.61c0-2.67,0.08-4.81,0.24-6.42
	s0.37-2.74,0.62-3.41c0.25-0.66,0.52-1.07,0.81-1.2c0.29-0.13,0.54-0.2,0.75-0.2h1.02c0.25,0,0.58,0.2,0.99,0.6
	c0.41,0.4,0.84,0.8,1.29,1.2c0.45,0.4,0.88,0.8,1.29,1.2c0.41,0.4,0.78,0.6,1.1,0.6h7.46c0.72,0,1.39,1.2,2.01,3.61
	c0.63,2.41,0.94,6.42,0.94,12.03c0,2.14-0.02,3.95-0.05,5.41c-0.04,1.47-0.16,3.41-0.38,5.81c-0.82,3.75-1.62,5.41-2.39,5.01
	c-0.77-0.4-1.51-0.6-2.23-0.6l-1.5,3.21h-0.91c-0.29,0-0.53,1.54-0.72,4.61c-0.2,3.08-0.3,6.35-0.3,9.82v15.64v3.21v23.66v18.85
	c0,1.6,0.07,4.01,0.21,7.22c0.14,3.21,0.21,5.61,0.21,7.22v22.45l-0.91,38.9c0,1.6,0.04,3.75,0.13,6.42
	c0.09,2.67,0.2,5.41,0.32,8.22c0.12,2.81,0.23,5.48,0.32,8.02c0.09,2.54,0.13,4.61,0.13,6.22c0,1.07-0.01,2.94-0.03,5.61
	c-0.02,2.67-0.05,5.34-0.11,8.02c-0.05,2.67-0.14,5.01-0.27,7.02c-0.13,2.01-0.3,3.01-0.51,3.01c-0.14,0-0.38,0-0.72,0
	c-0.34,0-0.69-0.14-1.05-0.4c-0.36-0.27-0.67-0.67-0.94-1.2c-0.27-0.54-0.4-1.2-0.4-2c-0.5-3.75-0.92-8.29-1.26-13.63
	c-0.34-5.34-0.76-9.62-1.26-12.83c-0.39-4.01-0.77-7.35-1.13-10.02c-0.36-2.67-0.71-5.21-1.05-7.62c-0.34-2.41-0.66-4.94-0.97-7.62
	c-0.3-2.67-0.56-5.88-0.78-9.62c-0.39-6.68-1-13.09-1.83-19.25c-0.82-6.15-1.69-12.29-2.6-18.44c-0.91-6.15-1.81-12.36-2.68-18.65
	c-0.88-6.28-1.58-12.76-2.12-19.45c0-0.8-0.05-2.07-0.16-3.81c-0.11-1.74-0.25-3.41-0.43-5.01c-0.18-1.6-0.39-3.07-0.62-4.41
	c-0.23-1.34-0.47-2.01-0.72-2.01c-0.68,0-1.02,4.01-1.02,12.03v30.07v15.64l0.43,22.45c0,5.35-0.03,9.02-0.08,11.03
	c-0.05,2.01-0.08,5.01-0.08,9.02c0,5.08,0.21,8.89,0.62,11.43c0.41,2.54,0.92,4.48,1.53,5.81c0.61,1.34,1.26,2.34,1.96,3.01
	c0.7,0.67,1.35,1.54,1.96,2.61c0.61,1.07,1.12,2.74,1.53,5.01c0.41,2.27,0.62,5.55,0.62,9.82c0,2.14-0.09,3.41-0.27,3.81
	c-0.18,0.4-0.39,0.6-0.64,0.6h-6.12l-3.44,3.61c-0.29-1.87-0.64-2.94-1.07-3.21c-0.43-0.27-0.77-0.4-1.02-0.4h-1.02
	c-0.75,0-1.31-0.74-1.66-2.21c-0.36-1.47-0.81-2.2-1.34-2.2h-1.93l-0.43,4.41h-1.07c0-1.07-0.01-2.88-0.03-5.41
	c-0.02-2.54-0.03-5.01-0.03-7.42c-0.04-2.94-0.05-6.01-0.05-9.22c0-2.14,0.16-4.01,0.48-5.61c0.32-1.6,0.61-2.4,0.86-2.4
	c0.57,0,0.96,0,1.15,0c0.2,0,0.32-0.06,0.38-0.2c0.05-0.13,0.09-0.2,0.11-0.2c0.02,0,0.12-0.06,0.32-0.2c0.2-0.13,0.54-0.2,1.02-0.2
	c0.48,0,1.23,0,2.23,0c0.25,0,0.46-0.6,0.64-1.81c0.18-1.2,0.32-2.61,0.43-4.21c0.11-1.6,0.18-3.27,0.21-5.01
	c0.04-1.74,0.05-3.01,0.05-3.81c-0.07-1.07-0.13-2.14-0.16-3.21c-0.11-1.6-0.16-3.47-0.16-5.61c0-4.01-0.03-7.28-0.08-9.82
	c-0.05-2.54-0.13-4.74-0.21-6.62c-0.09-1.87-0.16-3.54-0.21-5.01c-0.05-1.47-0.08-3.27-0.08-5.41c0-1.87,0.03-4.14,0.08-6.82
	c0.05-2.67,0.12-5.07,0.19-7.22c0.11-2.67,0.21-5.34,0.32-8.02v-26.86c0-1.6-0.03-3.47-0.08-5.61c-0.05-2.14-0.22-4.27-0.51-6.42
	c0-3.21,0.09-5.21,0.27-6.02c0.11-0.53,0.21-0.8,0.32-0.8c-0.04-1.07-0.11-2.54-0.21-4.41c-0.11-1.87-0.22-3.74-0.35-5.61
	c-0.13-1.87-0.23-3.61-0.32-5.21c-0.09-1.6-0.13-2.81-0.13-3.61c0-5.61-0.29-9.89-0.86-12.83c-0.57-2.94-1.21-5.75-1.91-8.42
	c-0.7-2.67-1.33-5.75-1.91-9.22c-0.57-3.47-0.86-8.55-0.86-15.24c0.14-2.67,0.29-5.07,0.43-7.22c0.14-1.87,0.3-3.61,0.46-5.21
	c0.16-1.6,0.37-2.41,0.62-2.41H181.42z"/>
<text transform="matrix(1 0 0 1.3031 662.9415 11.3835)" class="st6 st7 st8">jd</text>
<path class="st9" d="M730.3,163.75c-2.1,0-3.55,0.36-4.33,1.08c-0.31,0.34-0.62,0.85-0.92,1.52c-0.3,0.68-0.54,1.52-0.73,2.54
	c-0.16,0.72-0.26,1.49-0.31,2.32c-0.05,0.83-0.1,1.68-0.17,2.57l-0.14,2.03h-0.47l0.28-13.13h25.91l0.28,13.13h-0.52
	c0-2.79-0.14-4.96-0.42-6.5c-0.28-1.54-0.79-2.72-1.51-3.52c-0.35-0.42-0.72-0.77-1.13-1.05c-0.41-0.27-0.89-0.49-1.44-0.63
	c-0.55-0.15-1.2-0.24-1.96-0.29c-0.75-0.04-1.65-0.06-2.68-0.06h-0.24v41.81h2.17v0.95h-10.41v-0.95h1.84v-41.81H730.3z"/>
<path class="st9" d="M731.87,218.56c1.44-1.48,2.97-2.53,4.58-3.15c1.61-0.62,3.27-0.94,4.98-0.94c1.6,0,3.18,0.24,4.76,0.73
	c1.58,0.49,3.1,1.17,4.58,2.04c1.48,0.88,2.88,1.93,4.19,3.15c1.31,1.22,2.48,2.6,3.5,4.12c1.56,2.49,2.75,5.22,3.59,8.17
	c0.83,2.96,1.25,6.05,1.25,9.28c0,3.09-0.46,6.03-1.37,8.8c-0.91,2.77-2.39,5.24-4.44,7.41c-1.41,1.39-2.96,2.39-4.67,3.01
	c-1.71,0.62-3.47,0.93-5.3,0.93c-3.23,0-6.36-0.92-9.4-2.77c-1.44-0.88-2.8-1.97-4.07-3.29c-1.27-1.32-2.4-2.78-3.39-4.4
	c-1.44-2.17-2.56-4.71-3.36-7.62c-0.8-2.91-1.19-5.93-1.19-9.07c0-3.23,0.45-6.29,1.37-9.18
	C728.4,222.92,729.86,220.5,731.87,218.56z M732.38,219.39c-1.06,1.11-1.83,2.3-2.31,3.57c-0.48,1.27-0.71,2.64-0.71,4.12
	c0,1.62,0.25,3.31,0.74,5.09c0.49,1.78,1.1,3.52,1.82,5.23c0.72,1.71,1.51,3.33,2.36,4.85c0.85,1.52,1.66,2.84,2.42,3.95
	c0.8,1.29,1.77,2.7,2.9,4.22s2.37,2.94,3.7,4.26c1.33,1.32,2.72,2.41,4.19,3.29c1.46,0.88,2.91,1.32,4.36,1.32
	c0.87,0,1.73-0.2,2.56-0.59c0.83-0.39,1.67-0.96,2.51-1.7c1.9-1.94,2.85-4.39,2.85-7.34c0-2.03-0.38-4.04-1.14-6.03
	c-0.72-2.17-1.62-4.26-2.71-6.27c-1.08-2.01-2.14-3.8-3.16-5.37l-0.74-1.52l-1.31-1.73c-0.99-1.29-2.1-2.69-3.33-4.19
	c-1.23-1.5-2.59-2.85-4.07-4.05c-1.06-0.92-2.15-1.66-3.25-2.22c-1.1-0.55-2.24-0.83-3.42-0.83
	C735.21,217.45,733.79,218.1,732.38,219.39z"/>
<path class="st9" d="M726.06,293.37c1.19-1.35,2.46-2.32,3.79-2.89c1.33-0.57,2.71-0.86,4.12-0.86c1.32,0,2.63,0.22,3.93,0.67
	c1.3,0.44,2.57,1.07,3.79,1.87c1.22,0.8,2.38,1.77,3.46,2.89c1.08,1.12,2.05,2.38,2.9,3.78c1.29,2.28,2.28,4.78,2.97,7.49
	c0.69,2.71,1.04,5.54,1.04,8.5c0,2.83-0.38,5.52-1.13,8.06c-0.75,2.54-1.98,4.8-3.67,6.79c-1.16,1.27-2.45,2.19-3.86,2.76
	c-1.41,0.57-2.87,0.86-4.38,0.86c-2.67,0-5.26-0.85-7.77-2.54c-1.19-0.8-2.32-1.81-3.37-3.01c-1.05-1.21-1.99-2.55-2.8-4.03
	c-1.19-1.99-2.12-4.31-2.78-6.98c-0.66-2.67-0.99-5.43-0.99-8.31c0-2.96,0.38-5.76,1.13-8.41
	C723.19,297.36,724.39,295.15,726.06,293.37z M726.48,294.13c-0.88,1.02-1.51,2.1-1.91,3.27c-0.39,1.16-0.59,2.42-0.59,3.78
	c0,1.48,0.2,3.04,0.61,4.66c0.41,1.63,0.91,3.23,1.51,4.79c0.6,1.57,1.25,3.05,1.96,4.44c0.71,1.4,1.37,2.6,2,3.62
	c0.66,1.18,1.46,2.47,2.4,3.87c0.94,1.4,1.96,2.7,3.06,3.9c1.1,1.21,2.25,2.21,3.46,3.01c1.21,0.8,2.41,1.21,3.6,1.21
	c0.72,0,1.43-0.18,2.12-0.54c0.69-0.36,1.38-0.88,2.07-1.55c1.57-1.78,2.36-4.02,2.36-6.73c0-1.86-0.31-3.7-0.94-5.52
	c-0.6-1.99-1.34-3.9-2.24-5.74c-0.9-1.84-1.77-3.48-2.61-4.92l-0.61-1.4l-1.08-1.59c-0.82-1.18-1.74-2.46-2.75-3.84
	c-1.02-1.37-2.14-2.61-3.37-3.71c-0.88-0.85-1.77-1.52-2.68-2.03c-0.91-0.51-1.85-0.76-2.83-0.76
	C728.82,292.36,727.64,292.95,726.48,294.13z"/>
<path class="st9" d="M747.91,383.6v13.26h-21.81v-0.95h2.21V354.1h-2.21v-1.08h10.93v1.08h-2.68v41.81h4.33
	c0.91,0,1.76-0.02,2.54-0.06c0.78-0.04,1.48-0.1,2.07-0.19c1.38-0.21,2.42-1.75,3.11-4.63c0.25-1.35,0.46-2.65,0.61-3.9
	c0.16-1.25,0.24-2.42,0.24-3.52H747.91z"/>
<path class="st9" d="M751.24,459.36h2.31v0.95h-12.48v-0.95h2.54v-0.44h-0.05l-12.15-20.24h-0.42c0,1.74-0.01,3.45-0.02,5.14
	c-0.02,1.69-0.02,3.38-0.02,5.08v10.47h1.98v0.95h-10.08v-0.95h1.98v-41.81h-1.98v-1.08h9.84v1.08h-1.74v19.92h0.38l15.54-19.42
	h0.09v-0.51h-4.38v-1.08l9.42,0.13v1.08l-3.58,0.13h-0.14l-12.01,15.48h-0.09v0.32h0.05L751.24,459.36z"/>
<path class="st9" d="M731.83,479.92h9.8v1.08h-2.07v41.81h2.07v0.95h-9.8v-0.95h1.93v-41.81h-1.93V479.92z"/>
<path class="st9" d="M730.3,544.44c-2.1,0-3.55,0.36-4.33,1.08c-0.31,0.34-0.62,0.85-0.92,1.52c-0.3,0.68-0.54,1.52-0.73,2.54
	c-0.16,0.72-0.26,1.49-0.31,2.32c-0.05,0.82-0.1,1.68-0.17,2.57l-0.14,2.03h-0.47l0.28-13.13h25.91l0.28,13.13h-0.52
	c0-2.79-0.14-4.96-0.42-6.5c-0.28-1.54-0.79-2.72-1.51-3.52c-0.35-0.42-0.72-0.77-1.13-1.05c-0.41-0.27-0.89-0.49-1.44-0.63
	c-0.55-0.15-1.2-0.24-1.96-0.29c-0.75-0.04-1.65-0.06-2.68-0.06h-0.24v41.81h2.17v0.95h-10.41v-0.95h1.84v-41.81H730.3z"/>
<path class="st10" d="M745.69,171.71c-2.1,0-3.55,0.36-4.33,1.08c-0.31,0.34-0.62,0.85-0.92,1.52c-0.3,0.68-0.54,1.52-0.73,2.54
	c-0.16,0.72-0.26,1.49-0.31,2.32c-0.05,0.83-0.1,1.68-0.17,2.57l-0.14,2.03h-0.47l0.28-13.13h25.91l0.28,13.13h-0.52
	c0-2.79-0.14-4.96-0.42-6.5c-0.28-1.54-0.79-2.72-1.51-3.52c-0.35-0.42-0.72-0.77-1.13-1.05c-0.41-0.27-0.89-0.49-1.44-0.63
	c-0.55-0.15-1.2-0.24-1.96-0.29c-0.75-0.04-1.65-0.06-2.68-0.06h-0.24v41.81h2.17v0.95h-10.41v-0.95h1.84v-41.81H745.69z"/>
<path class="st10" d="M724.03,224.82c1.28-1.35,2.63-2.32,4.06-2.89c1.43-0.57,2.9-0.86,4.41-0.86c1.41,0,2.81,0.22,4.21,0.67
	c1.39,0.44,2.75,1.07,4.06,1.87c1.31,0.8,2.54,1.77,3.7,2.89c1.16,1.12,2.19,2.38,3.1,3.78c1.38,2.28,2.44,4.78,3.18,7.49
	c0.74,2.71,1.11,5.54,1.11,8.5c0,2.83-0.4,5.52-1.21,8.06c-0.81,2.54-2.12,4.8-3.93,6.79c-1.24,1.27-2.62,2.19-4.13,2.76
	c-1.51,0.57-3.07,0.86-4.69,0.86c-2.86,0-5.63-0.85-8.31-2.54c-1.28-0.8-2.48-1.81-3.6-3.01c-1.13-1.21-2.13-2.55-3-4.03
	c-1.28-1.99-2.27-4.31-2.97-6.98c-0.71-2.66-1.06-5.43-1.06-8.31c0-2.96,0.4-5.76,1.21-8.41
	C720.96,228.81,722.25,226.6,724.03,224.82z M724.48,225.59c-0.94,1.02-1.62,2.1-2.04,3.27c-0.42,1.16-0.63,2.42-0.63,3.78
	c0,1.48,0.22,3.04,0.66,4.66c0.44,1.63,0.97,3.23,1.61,4.79c0.64,1.57,1.34,3.05,2.09,4.44c0.76,1.4,1.47,2.6,2.14,3.62
	c0.71,1.18,1.56,2.47,2.57,3.87c1.01,1.4,2.1,2.7,3.28,3.9c1.18,1.21,2.41,2.21,3.7,3.01c1.29,0.8,2.58,1.21,3.86,1.21
	c0.77,0,1.53-0.18,2.27-0.54c0.74-0.36,1.48-0.88,2.22-1.55c1.68-1.78,2.52-4.02,2.52-6.73c0-1.86-0.34-3.7-1.01-5.52
	c-0.64-1.99-1.44-3.9-2.39-5.74c-0.96-1.84-1.89-3.48-2.8-4.92l-0.66-1.4l-1.16-1.59c-0.87-1.18-1.86-2.46-2.95-3.84
	c-1.09-1.37-2.29-2.61-3.6-3.71c-0.94-0.85-1.9-1.52-2.87-2.03c-0.97-0.51-1.98-0.76-3.02-0.76
	C726.99,223.81,725.73,224.4,724.48,225.59z"/>
<path class="st10" d="M734.14,284.78c1.34-1.56,2.76-2.66,4.25-3.32c1.5-0.66,3.04-0.99,4.62-0.99c1.48,0,2.95,0.26,4.41,0.77
	c1.46,0.51,2.88,1.23,4.25,2.15c1.37,0.92,2.67,2.03,3.88,3.32c1.21,1.29,2.3,2.74,3.25,4.34c1.44,2.63,2.55,5.5,3.33,8.61
	c0.77,3.11,1.16,6.37,1.16,9.78c0,3.26-0.42,6.35-1.27,9.27c-0.84,2.92-2.22,5.52-4.12,7.81c-1.3,1.46-2.75,2.52-4.33,3.17
	c-1.59,0.66-3.22,0.99-4.91,0.99c-2.99,0-5.9-0.97-8.72-2.92c-1.34-0.92-2.6-2.08-3.78-3.47c-1.18-1.39-2.23-2.93-3.14-4.63
	c-1.34-2.29-2.38-4.96-3.12-8.03c-0.74-3.06-1.11-6.25-1.11-9.56c0-3.4,0.42-6.63,1.27-9.67
	C730.92,289.37,732.27,286.82,734.14,284.78z M734.61,285.65c-0.99,1.17-1.7,2.42-2.14,3.76c-0.44,1.34-0.66,2.79-0.66,4.34
	c0,1.7,0.23,3.49,0.69,5.36c0.46,1.87,1.02,3.71,1.69,5.51c0.67,1.8,1.4,3.5,2.19,5.11c0.79,1.61,1.54,2.99,2.25,4.16
	c0.74,1.36,1.64,2.85,2.69,4.45c1.06,1.61,2.2,3.1,3.43,4.49c1.23,1.39,2.53,2.54,3.88,3.47c1.36,0.92,2.7,1.39,4.04,1.39
	c0.81,0,1.6-0.21,2.38-0.62c0.77-0.41,1.55-1.01,2.32-1.79c1.76-2.04,2.64-4.62,2.64-7.74c0-2.14-0.35-4.26-1.06-6.35
	c-0.67-2.29-1.51-4.49-2.51-6.6c-1-2.12-1.98-4-2.93-5.66l-0.69-1.61l-1.22-1.83c-0.92-1.36-1.95-2.83-3.09-4.41
	c-1.15-1.58-2.4-3-3.78-4.27c-0.99-0.97-1.99-1.75-3.01-2.34c-1.02-0.58-2.08-0.88-3.17-0.88
	C737.24,283.61,735.92,284.29,734.61,285.65z"/>
<path class="st10" d="M763.31,391.56v13.26H741.5v-0.95h2.21v-41.81h-2.21v-1.08h10.93v1.08h-2.68v41.81h4.33
	c0.91,0,1.76-0.02,2.54-0.06c0.78-0.04,1.48-0.1,2.07-0.19c1.38-0.21,2.42-1.75,3.11-4.63c0.25-1.35,0.46-2.65,0.61-3.9
	c0.16-1.25,0.24-2.42,0.24-3.52H763.31z"/>
<path class="st10" d="M766.63,467.32h2.31v0.95h-12.48v-0.95H759v-0.44h-0.05l-12.15-20.24h-0.42c0,1.74-0.01,3.45-0.02,5.14
	c-0.02,1.69-0.02,3.38-0.02,5.08v10.47h1.98v0.95h-10.08v-0.95h1.98v-41.81h-1.98v-1.08h9.84v1.08h-1.74v19.92h0.38l15.54-19.42
	h0.09v-0.51h-4.38v-1.08l9.42,0.13v1.08l-3.58,0.13h-0.14l-12.01,15.48h-0.09v0.32h0.05L766.63,467.32z"/>
<path class="st10" d="M747.22,487.88h9.8v1.08h-2.07v41.81h2.07v0.95h-9.8v-0.95h1.93v-41.81h-1.93V487.88z"/>
<path class="st10" d="M745.69,552.41c-2.1,0-3.55,0.36-4.33,1.08c-0.31,0.34-0.62,0.85-0.92,1.52c-0.3,0.68-0.54,1.52-0.73,2.54
	c-0.16,0.72-0.26,1.49-0.31,2.32c-0.05,0.82-0.1,1.68-0.17,2.57l-0.14,2.03h-0.47l0.28-13.13h25.91l0.28,13.13h-0.52
	c0-2.79-0.14-4.96-0.42-6.5c-0.28-1.54-0.79-2.72-1.51-3.52c-0.35-0.42-0.72-0.77-1.13-1.05c-0.41-0.27-0.89-0.49-1.44-0.63
	c-0.55-0.15-1.2-0.24-1.96-0.29c-0.75-0.04-1.65-0.06-2.68-0.06h-0.24v41.81h2.17v0.95h-10.41v-0.95h1.84v-41.81H745.69z"/>
<text transform="matrix(1 0 0 1 656.6278 63.4884)" class="st11 st12 st13">ournalism</text>
<text transform="matrix(1 0 0 1 676.8995 107.0084)" class="st14 st15 st13">esign</text>
<g>
	<g>
		<path class="st16" d="M9.13,552.93c-6.51,8.72-4.61,21.84,1.55,30.21c7.77,10.57,21.87,11.76,33.49,7.62
			c13.89-4.95,24.25-16.05,37.45-22.27c6.37-3,14.21-4.98,20.95-1.96c4.06,1.82,5.57,5.14,6.15,9.4c0.71,5.17-0.02,10.62-1.55,15.58
			c-1.22,3.96-3.18,8.66-7.04,10.71c1.14,1.14,2.28,2.28,3.42,3.42c6.82-10.32,16.01-19.77,25.95-27.12
			c2.95-2.18,12.21-9.57,15.59-5.86c2.21,2.43,2.36,6.39,3.12,9.44c0.76,3.04,1.69,6.04,2.85,8.96c3.26,8.15,8.44,16.55,16.7,20.38
			c6.79,3.15,14.43,2.35,20.62-1.8c9.59-6.44,14.59-17.92,17.38-28.72c-1.64-0.22-3.27-0.44-4.91-0.66
			c-0.14,6.98-0.42,14.1,0.77,21.02c0.77,4.45,2.69,9.62,7.62,10.71c6.4,1.42,13.1-4.39,17.53-8.16
			c7.55-6.44,16.16-11.8,23.07-18.98c6.75-7.02,16.74-12.18,26-6.32c0.64-1.52,1.28-3.05,1.93-4.57
			c-5.83-2.11-12.35-3.36-18.35-1.15c-4.3,1.59-9.1,5.05-11.59,9c-2.33,3.71-3.09,9.02-2.78,13.32c0.34,4.7,2.34,9.11,5.68,12.45
			c7.42,7.43,19.25,7.61,29.1,7.97c10.28,0.39,20.77-0.5,30.62-3.61c12.51-3.95,23.35-11.48,31.59-21.67
			c1.57-1.94,0.13-4.7-2.43-4.18c-6.1,1.23-9.61,7.95-9.53,13.78c0.04,3.23,0.74,6.61,4.23,7.33c3.13,0.65,6.36,0.56,9.46-0.22
			c13.54-3.4,22.66-18.07,22.58-31.54c-0.08-12.91-8.75-25.04-21.22-28.75c-12.7-3.79-26.12,3.78-28.96,16.94
			c-1.49,6.9,0.78,14.13,6.93,17.98c5.77,3.61,13.03,3.46,19.55,2.85c14.93-1.4,29.41-6.01,42.6-13.1
			c13.69-7.35,25.98-17.36,36.21-29.03c5.36-6.12,10.21-12.71,14.44-19.65c4.37-7.17,8.56-15.28,8.11-23.93
			c-0.35-6.65-4.37-14.68-11.47-16.17c-7.76-1.62-12.41,6.16-15.08,12.13c-7.8,17.44-14.34,35.5-20.14,53.69
			c-2.96,9.28-5.7,18.64-8.24,28.05c-1.27,4.72-2.5,9.45-3.68,14.2c-0.91,3.65-2.06,7.3-1.45,11.09c1.15,7.13,6.53,12.4,13.59,13.71
			c6.23,1.16,13.43-0.27,19.65-1.16c12.85-1.84,26.01-5.69,35.89-14.5c9.57-8.54,16.22-22.74,11.76-35.52
			c-1.96-5.62-6.62-10.21-12.98-9.17c-6.25,1.02-10.96,6.41-13.08,12.1c-4.05,10.86-0.03,24.15,6.87,32.94
			c7.93,10.11,21.16,12.63,33.39,13.2c13.37,0.63,26.9-1.94,39.44-6.5c11.87-4.31,23.17-10.39,32.94-18.43
			c7.28-5.99,14.6-13.76,17.14-23.11c0.97-3.58,1.09-7.38,0.01-10.96c-0.92-3.07-5.75-1.76-4.82,1.33
			c1.87,6.23-1.09,12.51-4.64,17.54c-5.18,7.35-12.54,13.22-20.06,18.02c-18.28,11.65-40.73,18.66-62.52,16.95
			c-10.01-0.79-20.7-2.98-27.14-11.32c-5.67-7.34-8.99-18.14-6.16-27.24c1.39-4.48,5.7-10.24,11.02-9.67
			c4.94,0.54,6.55,6.83,6.85,10.9c0.82,11.21-5.93,21.75-14.86,28.04c-8.99,6.34-19.97,9.15-30.73,10.63
			c-5.1,0.7-11.11,1.85-16.25,1.17c-6.07-0.8-11.05-5.81-10.49-12.21c0.33-3.7,1.7-7.49,2.61-11.07c0.99-3.89,2.02-7.77,3.07-11.64
			c2.11-7.72,4.36-15.41,6.75-23.05c4.75-15.17,10.08-30.16,16.09-44.87c1.5-3.68,3.02-7.36,4.66-10.99c1.27-2.8,2.69-5.99,5.1-8.01
			c6.1-5.08,11.44,4.23,11.93,9.42c0.69,7.43-3.03,14.57-6.71,20.74c-3.51,5.89-7.45,11.52-11.82,16.81
			c-16.35,19.77-38.47,35.04-63.54,41.2c-5.98,1.47-12.1,2.44-18.25,2.74c-5.17,0.25-11.49-0.15-15.22-4.26
			c-4.45-4.89-2.94-12.23,0.43-17.24c2.94-4.35,7.69-7.27,12.96-7.58c10.15-0.59,19.59,6.88,22.96,16.19
			c4.11,11.38-0.53,25.04-10.37,31.99c-4.47,3.16-9.8,4.64-15.17,3.19c0.5,0.38,1,0.77,1.49,1.15c-1.92-4.3,0.13-11.26,5.16-12.28
			c-0.81-1.39-1.62-2.79-2.43-4.18c-6.45,7.97-14.47,14.42-23.96,18.41c-8.34,3.51-17.36,5.09-26.37,5.42
			c-4.44,0.16-8.89,0.04-13.33-0.3c-4.28-0.32-8.82-0.54-12.94-1.78c-4.16-1.25-7.94-3.84-10.1-7.67c-2.14-3.8-2.08-8.15-1.21-12.32
			c0.89-4.25,3.56-6.77,7.06-9.15c5.85-3.97,12.52-2.84,18.79-0.56c2.75,1,4.23-3.11,1.93-4.57c-6.7-4.25-14.85-3.99-21.9-0.72
			c-3.82,1.77-6.91,4.42-9.79,7.45c-3.32,3.49-7.04,6.53-10.89,9.41c-3.58,2.68-7.21,5.29-10.58,8.24
			c-3.21,2.81-6.52,5.72-10.41,7.55c-1.5,0.71-3.65,1.58-5.25,0.68c-1.55-0.87-2.16-2.98-2.58-4.57c-1.85-7.02-1.23-14.8-1.08-21.99
			c0.06-2.81-4.2-3.4-4.91-0.66c-2.44,9.42-6.65,20.07-15.08,25.73c-5.88,3.94-12.78,4.07-18.65,0.05
			c-8.2-5.61-12.16-16.18-14.37-25.42c-1.32-5.54-2.83-13.65-10.25-13.36c-5.29,0.21-10.85,4.16-14.98,7.16
			c-10.93,7.93-20.9,18.09-28.36,29.37c-1.45,2.19,1.34,4.53,3.42,3.42c7.7-4.09,10.37-14.98,11.12-22.92
			c0.42-4.42,0.24-9.19-1.32-13.4c-1.72-4.63-4.97-7.3-9.61-8.94c-13.91-4.93-28.01,4.7-38.86,12.25
			c-11.14,7.75-24.82,17.85-39.25,13.61c-12.44-3.66-19.3-20.96-11.28-31.7C15.37,552.88,11.03,550.38,9.13,552.93L9.13,552.93z"/>
	</g>
</g>
<g>
	<g>
		<path class="st16" d="M200.89,565.47c1.51,0.85,3.02,1.69,4.53,2.54c0.57,0.32,1.29,0.43,1.93,0.25c0.58-0.16,1.21-0.61,1.49-1.15
			c0.31-0.58,0.46-1.28,0.25-1.93c-0.2-0.61-0.57-1.17-1.15-1.49c-1.51-0.85-3.02-1.69-4.53-2.54c-0.57-0.32-1.29-0.43-1.93-0.25
			c-0.58,0.16-1.21,0.61-1.49,1.15c-0.31,0.58-0.46,1.28-0.25,1.93C199.94,564.59,200.31,565.15,200.89,565.47
			c1.51,0.85,3.02,1.69,4.53,2.54c0.57,0.32,1.29,0.43,1.93,0.25c0.58-0.16,1.21-0.61,1.49-1.15c0.31-0.58,0.46-1.28,0.25-1.93
			c-0.2-0.61-0.57-1.17-1.15-1.49c-1.51-0.85-3.02-1.69-4.53-2.54c-0.57-0.32-1.29-0.43-1.93-0.25c-0.58,0.16-1.21,0.61-1.49,1.15
			c-0.31,0.58-0.46,1.28-0.25,1.93C199.94,564.59,200.31,565.15,200.89,565.47L200.89,565.47z"/>
	</g>
</g>
</svg>
